name rise37.2698peak67.6939fall79.5734.mot
datacolumns 19
datarows 27
range 14.17661000000000 14.21995100000000
endheader
time	ground_force1_vx	ground_force1_vy	ground_force1_vz	ground_force1_px	ground_force1_py	ground_force1_pz	ground_force2_vx	ground_force2_vy	ground_force2_vz	ground_force2_px	ground_force2_py	ground_force2_pz	ground_torque1_x	ground_torque1_y	ground_torque1_z	ground_torque2_x	ground_torque2_y	ground_torque2_z	
14.17661000000000	73.49820000000000	801.94944399999997	53.25001400000000	0.33643200000000	0.00000000000000	0.09927600000000	0.00000000000000	0.00000000000000	0.00000000000000	0.00000000000000	0.00000000000000	0.00000000000000	0.00000000000000	20.54875000000000	0.00000000000000	0.00000000000000	0.00000000000000	0.00000000000000	
14.17827800000000	72.86038499999999	803.16657699999996	53.21160500000000	0.33576600000000	0.00000000000000	0.09925800000000	0.00000000000000	0.00000000000000	0.00000000000000	0.00000000000000	0.00000000000000	0.00000000000000	0.00000000000000	20.51760200000000	0.00000000000000	0.00000000000000	0.00000000000000	0.00000000000000	
14.17994800000000	72.22218300000000	804.24774600000001	53.17489400000000	0.33512000000000	0.00000000000000	0.09924000000000	0.00000000000000	0.00000000000000	0.00000000000000	0.00000000000000	0.00000000000000	0.00000000000000	0.00000000000000	20.48921300000000	0.00000000000000	0.00000000000000	0.00000000000000	0.00000000000000	
14.18162100000000	71.58378200000000	805.19334200000003	53.13986900000000	0.33449300000000	0.00000000000000	0.09922200000000	0.00000000000000	0.00000000000000	0.00000000000000	0.00000000000000	0.00000000000000	0.00000000000000	0.00000000000000	20.46355400000000	0.00000000000000	0.00000000000000	0.00000000000000	0.00000000000000	
14.18328900000000	70.94532200000000	806.00391000000002	53.10644500000000	0.33388300000000	0.00000000000000	0.09920400000000	0.00000000000000	0.00000000000000	0.00000000000000	0.00000000000000	0.00000000000000	0.00000000000000	0.00000000000000	20.44055400000000	0.00000000000000	0.00000000000000	0.00000000000000	0.00000000000000	
14.18495100000000	70.30688600000001	806.68015600000001	53.07447400000000	0.33328600000000	0.00000000000000	0.09918600000000	0.00000000000000	0.00000000000000	0.00000000000000	0.00000000000000	0.00000000000000	0.00000000000000	0.00000000000000	20.42010100000000	0.00000000000000	0.00000000000000	0.00000000000000	0.00000000000000	
14.18661400000000	69.66851500000000	807.22295399999996	53.04374500000000	0.33270200000000	0.00000000000000	0.09916900000000	0.00000000000000	0.00000000000000	0.00000000000000	0.00000000000000	0.00000000000000	0.00000000000000	0.00000000000000	20.40204400000000	0.00000000000000	0.00000000000000	0.00000000000000	0.00000000000000	
14.18828000000000	69.03020600000001	807.63334799999996	53.01399300000000	0.33212800000000	0.00000000000000	0.09915100000000	0.00000000000000	0.00000000000000	0.00000000000000	0.00000000000000	0.00000000000000	0.00000000000000	0.00000000000000	20.38619800000000	0.00000000000000	0.00000000000000	0.00000000000000	0.00000000000000	
14.18994300000000	68.39191800000000	807.91255300000000	52.98490000000000	0.33156100000000	0.00000000000000	0.09913500000000	0.00000000000000	0.00000000000000	0.00000000000000	0.00000000000000	0.00000000000000	0.00000000000000	0.00000000000000	20.37234600000000	0.00000000000000	0.00000000000000	0.00000000000000	0.00000000000000	
14.19161600000000	67.75357700000001	808.06196399999999	52.95610600000000	0.33100000000000	0.00000000000000	0.09911800000000	0.00000000000000	0.00000000000000	0.00000000000000	0.00000000000000	0.00000000000000	0.00000000000000	0.00000000000000	20.36024300000000	0.00000000000000	0.00000000000000	0.00000000000000	0.00000000000000	
14.19327900000000	67.11508000000001	808.08315100000004	52.92720800000000	0.33044200000000	0.00000000000000	0.09910200000000	0.00000000000000	0.00000000000000	0.00000000000000	0.00000000000000	0.00000000000000	0.00000000000000	0.00000000000000	20.34962000000000	0.00000000000000	0.00000000000000	0.00000000000000	0.00000000000000	
14.19494900000000	66.47630100000001	807.97786299999996	52.89777400000000	0.32988500000000	0.00000000000000	0.09908600000000	0.00000000000000	0.00000000000000	0.00000000000000	0.00000000000000	0.00000000000000	0.00000000000000	0.00000000000000	20.34018500000000	0.00000000000000	0.00000000000000	0.00000000000000	0.00000000000000	
14.19661300000000	65.83709300000000	807.74802699999998	52.86734100000000	0.32932600000000	0.00000000000000	0.09907100000000	0.00000000000000	0.00000000000000	0.00000000000000	0.00000000000000	0.00000000000000	0.00000000000000	0.00000000000000	20.33162800000000	0.00000000000000	0.00000000000000	0.00000000000000	0.00000000000000	
14.19828400000000	65.19729400000000	807.39574700000003	52.83542500000000	0.32876300000000	0.00000000000000	0.09905600000000	0.00000000000000	0.00000000000000	0.00000000000000	0.00000000000000	0.00000000000000	0.00000000000000	0.00000000000000	20.32362700000000	0.00000000000000	0.00000000000000	0.00000000000000	0.00000000000000	
14.19994800000000	64.55673000000000	806.92330400000003	52.80152500000000	0.32819400000000	0.00000000000000	0.09904200000000	0.00000000000000	0.00000000000000	0.00000000000000	0.00000000000000	0.00000000000000	0.00000000000000	0.00000000000000	20.31584500000000	0.00000000000000	0.00000000000000	0.00000000000000	0.00000000000000	
14.20161300000000	63.91522200000000	806.33315000000005	52.76513200000000	0.32761600000000	0.00000000000000	0.09902900000000	0.00000000000000	0.00000000000000	0.00000000000000	0.00000000000000	0.00000000000000	0.00000000000000	0.00000000000000	20.30794200000000	0.00000000000000	0.00000000000000	0.00000000000000	0.00000000000000	
14.20327700000000	63.27258800000000	805.62790399999994	52.72572900000000	0.32702800000000	0.00000000000000	0.09901600000000	0.00000000000000	0.00000000000000	0.00000000000000	0.00000000000000	0.00000000000000	0.00000000000000	0.00000000000000	20.29957100000000	0.00000000000000	0.00000000000000	0.00000000000000	0.00000000000000	
14.20494900000000	62.62864700000000	804.81035499999996	52.68280300000000	0.32642600000000	0.00000000000000	0.09900400000000	0.00000000000000	0.00000000000000	0.00000000000000	0.00000000000000	0.00000000000000	0.00000000000000	0.00000000000000	20.29038400000000	0.00000000000000	0.00000000000000	0.00000000000000	0.00000000000000	
14.20661100000000	61.98322400000000	803.88344600000005	52.63584200000000	0.32580900000000	0.00000000000000	0.09899300000000	0.00000000000000	0.00000000000000	0.00000000000000	0.00000000000000	0.00000000000000	0.00000000000000	0.00000000000000	20.28003800000000	0.00000000000000	0.00000000000000	0.00000000000000	0.00000000000000	
14.20828200000000	61.33615100000000	802.85027700000001	52.58434900000000	0.32517500000000	0.00000000000000	0.09898200000000	0.00000000000000	0.00000000000000	0.00000000000000	0.00000000000000	0.00000000000000	0.00000000000000	0.00000000000000	20.26819200000000	0.00000000000000	0.00000000000000	0.00000000000000	0.00000000000000	
14.20994600000000	60.68727600000000	801.71409600000004	52.52784100000000	0.32452100000000	0.00000000000000	0.09897200000000	0.00000000000000	0.00000000000000	0.00000000000000	0.00000000000000	0.00000000000000	0.00000000000000	0.00000000000000	20.25451700000000	0.00000000000000	0.00000000000000	0.00000000000000	0.00000000000000	
14.21161500000000	60.03645900000000	800.47828900000002	52.46585200000000	0.32384700000000	0.00000000000000	0.09896300000000	0.00000000000000	0.00000000000000	0.00000000000000	0.00000000000000	0.00000000000000	0.00000000000000	0.00000000000000	20.23869400000000	0.00000000000000	0.00000000000000	0.00000000000000	0.00000000000000	
14.21328000000000	59.38357900000000	799.14637600000003	52.39794300000000	0.32314900000000	0.00000000000000	0.09895500000000	0.00000000000000	0.00000000000000	0.00000000000000	0.00000000000000	0.00000000000000	0.00000000000000	0.00000000000000	20.22041800000000	0.00000000000000	0.00000000000000	0.00000000000000	0.00000000000000	
14.21494400000000	58.72853800000000	797.72200299999997	52.32370100000000	0.32242600000000	0.00000000000000	0.09894700000000	0.00000000000000	0.00000000000000	0.00000000000000	0.00000000000000	0.00000000000000	0.00000000000000	0.00000000000000	20.19940100000000	0.00000000000000	0.00000000000000	0.00000000000000	0.00000000000000	
14.21661300000000	58.07126100000000	796.20892900000001	52.24274400000000	0.32167700000000	0.00000000000000	0.09894000000000	0.00000000000000	0.00000000000000	0.00000000000000	0.00000000000000	0.00000000000000	0.00000000000000	0.00000000000000	20.17537300000000	0.00000000000000	0.00000000000000	0.00000000000000	0.00000000000000	
14.21827900000000	57.41169700000000	794.61102400000004	52.15472300000000	0.32090100000000	0.00000000000000	0.09893400000000	0.00000000000000	0.00000000000000	0.00000000000000	0.00000000000000	0.00000000000000	0.00000000000000	0.00000000000000	20.14808700000000	0.00000000000000	0.00000000000000	0.00000000000000	0.00000000000000	
14.21995100000000	56.74982500000000	792.93225399999994	52.05932500000000	0.32009500000000	0.00000000000000	0.09892900000000	0.00000000000000	0.00000000000000	0.00000000000000	0.00000000000000	0.00000000000000	0.00000000000000	0.00000000000000	20.11731700000000	0.00000000000000	0.00000000000000	0.00000000000000	0.00000000000000	
